<svg xmlns="http://www.w3.org/2000/svg" version="1.1" xmlns:xlink="http://www.w3.org/1999/xlink" xmlns:svgjs="http://svgjs.dev/svgjs" width="200" height="200"><svg t="1740313487216" class="icon" viewBox="0 0 1024 1024" version="1.1" xmlns="http://www.w3.org/2000/svg" p-id="31982" xmlns:xlink="http://www.w3.org/1999/xlink" width="200" height="200"><path d="M938.666667 680.106667c0 119.04-95.573333 215.466667-214.613334 215.893333H300.8C182.186667 896 85.333333 800 85.333333 680.96v-0.426667s0.256-188.842667 0.597334-283.818666a21.248 21.248 0 0 1 34.474666-16.725334c101.376 80.426667 282.666667 227.072 284.928 228.992 30.293333 24.32 68.693333 37.973333 107.946667 37.973334 39.253333 0 77.653333-13.653333 107.946667-38.4 2.261333-1.536 179.498667-143.786667 282.410666-225.536a21.333333 21.333333 0 0 1 34.56 16.64c0.426667 94.293333 0.426667 280.448 0.426667 280.448" fill="#CCD0D8" p-id="31983"></path><path d="M916.309333 242.090667A214.826667 214.826667 0 0 0 726.613333 128H300.8a214.826667 214.826667 0 0 0-189.696 114.090667 36.864 36.864 0 0 0 9.429333 45.994666l316.8 253.397334c22.186667 17.92 49.066667 26.837333 75.946667 26.837333h0.853333c26.88 0 53.76-8.96 75.946667-26.88l316.8-253.354667a36.864 36.864 0 0 0 9.429333-45.994666" fill="#80899D" p-id="31984"></path></svg><style>@media (prefers-color-scheme: light) { :root { filter: none; } }
@media (prefers-color-scheme: dark) { :root { filter: none; } }
</style></svg>